<svg xmlns="http://www.w3.org/2000/svg" viewport="0 0 119 52"><path d="M84.734 44.666h-50.128l.013.529c0 1.331-.233 2.607-.661 3.791h51.423c-.427-1.184-.661-2.46-.661-3.791l.014-.529zM118.933 39.908c-1.093-7.949-8.144-29.538-8.843-31.667-.967-5.012-4.353-8.241-8.661-8.241h-92.704c-4.811 0-8.725 3.94-8.725 8.783v31.421c0 4.843 3.914 8.782 8.725 8.782h4.453c-.427-1.184-.661-2.46-.661-3.791l.013-.529h-3.805c-2.444 0-4.433-2.002-4.433-4.462v-15.744h106.351c1.81 6.13 3.562 12.582 4.037 16.04.154 1.123-.361 1.991-.82 2.522-.88 1.016-2.27 1.644-3.633 1.644h-3.416l.013.529c0 1.331-.233 2.607-.661 3.791h4.064c2.605 0 5.174-1.168 6.867-3.125 1.478-1.707 2.131-3.821 1.839-5.953zm-114.641-19.768v-11.357c0-2.46 1.989-4.462 4.433-4.462h5.949l4.884 15.819h-15.266zm19.761 0l-4.886-15.82h16.714l4.887 15.819h-16.715zm21.208 0l-4.886-15.82h16.716l4.884 15.819h-16.714zm21.21 0l-4.889-15.82h16.717l4.883 15.819h-16.711zm21.207 0l-4.886-15.82h18.637c1.733 0 3.819 1.274 4.468 4.852l.027.149.047.142c.033.104 1.582 4.815 3.374 10.677h-21.667zM30.328 45.195c0 1.402-.423 2.707-1.15 3.791-1.215 1.817-3.275 3.014-5.61 3.014-2.335 0-4.395-1.197-5.609-3.014-.728-1.084-1.15-2.389-1.15-3.791l.02-.529c.271-3.505 3.188-6.274 6.74-6.274 3.551 0 6.47 2.77 6.74 6.274l.019.529zM102.531 45.195c0 1.402-.422 2.707-1.15 3.791-1.214 1.817-3.274 3.014-5.61 3.014-2.334 0-4.395-1.197-5.609-3.014-.727-1.084-1.149-2.389-1.149-3.791l.02-.529c.271-3.505 3.188-6.274 6.739-6.274 3.553 0 6.471 2.77 6.74 6.274l.019.529z" fill="none"/></svg>
